<svg xmlns="http://www.w3.org/2000/svg" xmlns:xlink="http://www.w3.org/1999/xlink" id="canvas" width="2000" height="2000">
 
  <style type="text/css">
      .curveA{stroke: #ff0000;stroke-width: 1; fill: none;}
	  .curveB{stroke: #0000ff;stroke-width: 1; fill: none;}
	  .link{stroke: #CC00CC;stroke-width:2.5; fill: none;}
	  .Point{stroke: none; fill: #000000;}
	  .Intersect{stroke: #FF00FF;stroke-width: 2; fill: #FF00FF;}
	  .BGR{stroke: none; fill: #dddddd;}
  </style>
  <rect class="BGR" width="1000" height="1000"/>
  

<g> <path class = "curveA" d = "M 50, 515.6  C 203.2, 430.8  519.2, 403.8  350, 336.2  180.8, 268.6  790.4, 532.2  650, 587  509.6, 641.8  909.8, 345.2  950, 309.2  "/> </g>
<ellipse class = "Point" cx = "50" cy = "515.6000000000000227373675" rx = "2.5" ry = "2.5"/>
<ellipse class = "Point" cx = "256.859375" cy = "439.3953124999999886313162" rx = "2.5" ry = "2.5"/>
<ellipse class = "Point" cx = "347.7277343750000113686838" cy = "409.8517578125000113686838" rx = "2.5" ry = "2.5"/>
<ellipse class = "Point" cx = "396.0500000000000113686838" cy = "380.8250000000000454747351" rx = "2.5" ry = "2.5"/>
<ellipse class = "Point" cx = "398.4793518066406363686838" cy = "373.1929901123046420252649" rx = "2.5" ry = "2.5"/>
<ellipse class = "Point" cx = "396.247314453125" cy = "365.2892333984374886313162" rx = "2.5" ry = "2.5"/>
<ellipse class = "Point" cx = "376.197265625" cy = "348.4232421875000227373675" rx = "2.5" ry = "2.5"/>
<ellipse class = "Point" cx = "336.3724853515624886313162" cy = "330.8163330078124886313162" rx = "2.5" ry = "2.5"/>
<ellipse class = "Point" cx = "323.8750152587890625" cy = "326.1632110595703011313162" rx = "2.5" ry = "2.5"/>
<ellipse class = "Point" cx = "320.9451160430908203125" cy = "325.2863407135009765625" rx = "2.5" ry = "2.5"/>
<ellipse class = "Point" cx = "320.2582083225249789393274" cy = "325.1920784473418848392612" rx = "2.5" ry = "2.5"/>
<ellipse class = "Point" cx = "320.102806550264347151824" cy = "325.2287093222141152182303" rx = "2.5" ry = "2.5"/>
<ellipse class = "Point" cx = "320.071311388164758682251" cy = "325.267680109292257384368" rx = "2.5" ry = "2.5"/>
<ellipse class = "Point" cx = "320.0703125" cy = "325.3203125" rx = "2.5" ry = "2.5"/>
<ellipse class = "Point" cx = "489.1999999999999886313162" cy = "415.7000000000000454747351" rx = "2.5" ry = "2.5"/>
<ellipse class = "Point" cx = "608.5537109375" cy = "490.9326171875" rx = "2.5" ry = "2.5"/>
<ellipse class = "Point" cx = "650.4742431640625" cy = "526.7157470703125454747351" rx = "2.5" ry = "2.5"/>
<ellipse class = "Point" cx = "670.4796874999999545252649" cy = "557.7171875000000227373675" rx = "2.5" ry = "2.5"/>
<ellipse class = "Point" cx = "669.9023284912109375" cy = "570.5904998779296875" rx = "2.5" ry = "2.5"/>
<ellipse class = "Point" cx = "661.0118896484375454747351" cy = "581.2672607421875454747351" rx = "2.5" ry = "2.5"/>
<ellipse class = "Point" cx = "629.790283203125" cy = "593.3064453125000454747351" rx = "2.5" ry = "2.5"/>
<ellipse class = "Point" cx = "622.1542839050292741376325" cy = "593.1707366943359147626325" rx = "2.5" ry = "2.5"/>
<ellipse class = "Point" cx = "620.5567284584044500661548" cy = "591.6729053497314225751325" rx = "2.5" ry = "2.5"/>
<ellipse class = "Point" cx = "620.346710205078125" cy = "589.2847900390625" rx = "2.5" ry = "2.5"/>
<ellipse class = "Point" cx = "631.9906250000000227373675" cy = "571.7749999999999772626325" rx = "2.5" ry = "2.5"/>
<ellipse class = "Point" cx = "950" cy = "309.1999999999999886313162" rx = "2.5" ry = "2.5"/>
<g> <path class = "curveB" d = "M 50, 700.3999999999999772626325  C 228.8000000000000113686838, 534.3999999999999772626325  230, 846  350, 686  470, 526  590.3999999999999772626325, 610.6000000000000227373675  650, 763.3999999999999772626325  709.6000000000000227373675, 916.2000000000000454747351  870.2000000000000454747351, 778.6000000000000227373675  950, 666.7999999999999545252649  "/> </g>
<ellipse class = "Point" cx = "50" cy = "700.3999999999999772626325" rx = "2.5" ry = "2.5"/>
<ellipse class = "Point" cx = "133.7975585937500113686838" cy = "651.1399414062500454747351" rx = "2.5" ry = "2.5"/>
<ellipse class = "Point" cx = "191.85546875" cy = "665.08203125" rx = "2.5" ry = "2.5"/>
<ellipse class = "Point" cx = "277.6437500000000113686838" cy = "732.40625" rx = "2.5" ry = "2.5"/>
<ellipse class = "Point" cx = "301.32049560546875" cy = "730.07989501953125" rx = "2.5" ry = "2.5"/>
<ellipse class = "Point" cx = "328.81982421875" cy = "710.7051757812499772626325" rx = "2.5" ry = "2.5"/>
<ellipse class = "Point" cx = "394.8992187499999886313162" cy = "637.12109375" rx = "2.5" ry = "2.5"/>
<ellipse class = "Point" cx = "460.74951171875" cy = "602.27685546875" rx = "2.5" ry = "2.5"/>
<ellipse class = "Point" cx = "522.6499999999999772626325" cy = "607.3999999999999772626325" rx = "2.5" ry = "2.5"/>
<ellipse class = "Point" cx = "624.9195312499999772626325" cy = "709.6414062499999317878974" rx = "2.5" ry = "2.5"/>
<ellipse class = "Point" cx = "662.314208984375" cy = "788.7240722656249545252649" rx = "2.5" ry = "2.5"/>
<ellipse class = "Point" cx = "710.796875" cy = "828.4906250000000227373675" rx = "2.5" ry = "2.5"/>
<ellipse class = "Point" cx = "770.9971191406250454747351" cy = "823.6755371093751136868377" rx = "2.5" ry = "2.5"/>
<ellipse class = "Point" cx = "835.724609375" cy = "786.7847656249999772626325" rx = "2.5" ry = "2.5"/>
<ellipse class = "Point" cx = "950" cy = "666.7999999999999545252649" rx = "2.5" ry = "2.5"/>
<g> <path class = "link" d = "M50, 515.6  50, 700.4  "/></g>
<ellipse class = "link" cx = "50" cy = "515.6000000000000227373675" rx = "3" ry = "3"/>
<ellipse class = "link" cx = "50" cy = "700.3999999999999772626325" rx = "3" ry = "3"/>
<!-- dist = 184.7999999999999545252649 -->
<g> <path class = "link" d = "M50, 515.6  950, 666.8  "/></g>
<ellipse class = "link" cx = "50" cy = "515.6000000000000227373675" rx = "3" ry = "3"/>
<ellipse class = "link" cx = "950" cy = "666.7999999999999545252649" rx = "3" ry = "3"/>
<!-- dist = 912.6124259509070952844922 -->
<g> <path class = "link" d = "M950, 309.2  50, 700.4  "/></g>
<ellipse class = "link" cx = "950" cy = "309.1999999999999886313162" rx = "3" ry = "3"/>
<ellipse class = "link" cx = "50" cy = "700.3999999999999772626325" rx = "3" ry = "3"/>
<!-- dist = 981.3447100789813930532546 -->
<g> <path class = "link" d = "M950, 309.2  950, 666.8  "/></g>
<ellipse class = "link" cx = "950" cy = "309.1999999999999886313162" rx = "3" ry = "3"/>
<ellipse class = "link" cx = "950" cy = "666.7999999999999545252649" rx = "3" ry = "3"/>
<!-- dist = 357.5999999999999658939487 -->
<g> <path class = "link" d = "M320.714804143281, 325.935106154886  50, 700.4  "/></g>
<ellipse class = "link" cx = "320.7148041432809577599983" cy = "325.9351061548862844574614" rx = "3" ry = "3"/>
<ellipse class = "link" cx = "50" cy = "700.3999999999999772626325" rx = "3" ry = "3"/>
<!-- dist = 462.0719228699869631782349 -->
<g> <path class = "link" d = "M320.714804219733, 325.935106210157  50, 700.4  "/></g>
<ellipse class = "link" cx = "320.7148042197331392344495" cy = "325.9351062101565048578777" rx = "3" ry = "3"/>
<ellipse class = "link" cx = "50" cy = "700.3999999999999772626325" rx = "3" ry = "3"/>
<!-- dist = 462.0719228699869631782349 -->
<g> <path class = "link" d = "M320.714804028592, 325.935106071973  50, 700.4  "/></g>
<ellipse class = "link" cx = "320.7148040285921410941228" cy = "325.9351060719734505255474" rx = "3" ry = "3"/>
<ellipse class = "link" cx = "50" cy = "700.3999999999999772626325" rx = "3" ry = "3"/>
<!-- dist = 462.0719228699869631782349 -->
<g> <path class = "link" d = "M320.71480421458, 325.935106206431  50, 700.4  "/></g>
<ellipse class = "link" cx = "320.7148042145797148805286" cy = "325.9351062064308734989027" rx = "3" ry = "3"/>
<ellipse class = "link" cx = "50" cy = "700.3999999999999772626325" rx = "3" ry = "3"/>
<!-- dist = 462.0719228699869631782349 -->
<g> <path class = "link" d = "M320.71480424252, 325.93510622663  50, 700.4  "/></g>
<ellipse class = "link" cx = "320.7148042425198468663439" cy = "325.9351062266298981739965" rx = "3" ry = "3"/>
<ellipse class = "link" cx = "50" cy = "700.3999999999999772626325" rx = "3" ry = "3"/>
<!-- dist = 462.0719228699869631782349 -->
<g> <path class = "link" d = "M320.714804185949, 325.935106185733  50, 700.4  "/></g>
<ellipse class = "link" cx = "320.71480418594916272923" cy = "325.9351061857327636062109" rx = "3" ry = "3"/>
<ellipse class = "link" cx = "50" cy = "700.3999999999999772626325" rx = "3" ry = "3"/>
<!-- dist = 462.0719228699869631782349 -->
<g> <path class = "link" d = "M320.714804169333, 325.935106173721  50, 700.4  "/></g>
<ellipse class = "link" cx = "320.7148041693334903357027" cy = "325.9351061737206691759638" rx = "3" ry = "3"/>
<ellipse class = "link" cx = "50" cy = "700.3999999999999772626325" rx = "3" ry = "3"/>
<!-- dist = 462.0719228699870200216537 -->
<g> <path class = "link" d = "M320.714804174485, 325.935106177445  50, 700.4  "/></g>
<ellipse class = "link" cx = "320.7148041744848683265445" cy = "325.9351061774447657626297" rx = "3" ry = "3"/>
<ellipse class = "link" cx = "50" cy = "700.3999999999999772626325" rx = "3" ry = "3"/>
<!-- dist = 462.0719228699870200216537 -->
<g> <path class = "link" d = "M320.714804035701, 325.935106077112  50, 700.4  "/></g>
<ellipse class = "link" cx = "320.7148040357008085265988" cy = "325.9351060771124934944964" rx = "3" ry = "3"/>
<ellipse class = "link" cx = "50" cy = "700.3999999999999772626325" rx = "3" ry = "3"/>
<!-- dist = 462.0719228699870768650726 -->
<g> <path class = "link" d = "M320.714804274085, 325.935106249449  50, 700.4  "/></g>
<ellipse class = "link" cx = "320.7148042740847699860751" cy = "325.935106249449233928317" rx = "3" ry = "3"/>
<ellipse class = "link" cx = "50" cy = "700.3999999999999772626325" rx = "3" ry = "3"/>
<!-- dist = 462.0719228699870768650726 -->
<g> <path class = "link" d = "M320.714804052342, 325.935106089143  50, 700.4  "/></g>
<ellipse class = "link" cx = "320.7148040523421741454513" cy = "325.935106089143175722711" rx = "3" ry = "3"/>
<ellipse class = "link" cx = "50" cy = "700.3999999999999772626325" rx = "3" ry = "3"/>
<!-- dist = 462.0719228699870768650726 -->
<g> <path class = "link" d = "M320.71480421644, 325.935106207776  50, 700.4  "/></g>
<ellipse class = "link" cx = "320.7148042164401999798429" cy = "325.9351062077757887891494" rx = "3" ry = "3"/>
<ellipse class = "link" cx = "50" cy = "700.3999999999999772626325" rx = "3" ry = "3"/>
<!-- dist = 462.0719228699870768650726 -->
<g> <path class = "link" d = "M320.714804265212, 325.935106243035  50, 700.4  "/></g>
<ellipse class = "link" cx = "320.7148042652124217966048" cy = "325.9351062430350793874823" rx = "3" ry = "3"/>
<ellipse class = "link" cx = "50" cy = "700.3999999999999772626325" rx = "3" ry = "3"/>
<!-- dist = 462.0719228699870768650726 -->
<g> <path class = "link" d = "M774.759098730144, 447.768047683754  950, 666.8  "/></g>
<ellipse class = "link" cx = "774.7590987301443874457618" cy = "447.7680476837538776635483" rx = "3" ry = "3"/>
<ellipse class = "link" cx = "950" cy = "666.7999999999999545252649" rx = "3" ry = "3"/>
<!-- dist = 280.5073432431628361882758 -->
<g> <path class = "link" d = "M774.759098651501, 447.768047746674  950, 666.8  "/></g>
<ellipse class = "link" cx = "774.7590986515007216439699" cy = "447.7680477466742559045088" rx = "3" ry = "3"/>
<ellipse class = "link" cx = "950" cy = "666.7999999999999545252649" rx = "3" ry = "3"/>
<!-- dist = 280.5073432431628930316947 -->
<g> <path class = "link" d = "M774.759098699624, 447.768047708173  950, 666.8  "/></g>
<ellipse class = "link" cx = "774.7590986996236779305036" cy = "447.7680477081725030075177" rx = "3" ry = "3"/>
<ellipse class = "link" cx = "950" cy = "666.7999999999999545252649" rx = "3" ry = "3"/>
<!-- dist = 280.5073432431629498751136 -->
<g> <path class = "link" d = "M50, 515.6  110.777463317947, 658.043658210857  "/></g>
<ellipse class = "link" cx = "50" cy = "515.6000000000000227373675" rx = "3" ry = "3"/>
<ellipse class = "link" cx = "110.777463317947052701129" cy = "658.0436582108568472904153" rx = "3" ry = "3"/>
<!-- dist = 154.8679947951021915741876 -->
<g> <path class = "link" d = "M50, 515.6  110.777463300737, 658.0436582182  "/></g>
<ellipse class = "link" cx = "50" cy = "515.6000000000000227373675" rx = "3" ry = "3"/>
<ellipse class = "link" cx = "110.7774633007371392068308" cy = "658.0436582182001075125299" rx = "3" ry = "3"/>
<!-- dist = 154.8679947951023621044442 -->
<g> <path class = "link" d = "M50, 515.6  110.777463475404, 658.043658143674  "/></g>
<ellipse class = "link" cx = "50" cy = "515.6000000000000227373675" rx = "3" ry = "3"/>
<ellipse class = "link" cx = "110.7774634754041045425765" cy = "658.043658143673724225664" rx = "3" ry = "3"/>
<!-- dist = 154.8679947951023905261536 -->
<g> <path class = "link" d = "M50, 515.6  110.777463237486, 658.043658245188  "/></g>
<ellipse class = "link" cx = "50" cy = "515.6000000000000227373675" rx = "3" ry = "3"/>
<ellipse class = "link" cx = "110.7774632374864296480155" cy = "658.0436582451877711719135" rx = "3" ry = "3"/>
<!-- dist = 154.8679947951023905261536 -->
<g> <path class = "link" d = "M950, 309.2  582.804193363332, 650.346907484968  "/></g>
<ellipse class = "link" cx = "950" cy = "309.1999999999999886313162" rx = "3" ry = "3"/>
<ellipse class = "link" cx = "582.8041933633318194551975" cy = "650.346907484968141943682" rx = "3" ry = "3"/>
<!-- dist = 501.2125027352278721082257 -->
<g> <path class = "link" d = "M950, 309.2  582.804193122113, 650.34690722533  "/></g>
<ellipse class = "link" cx = "950" cy = "309.1999999999999886313162" rx = "3" ry = "3"/>
<ellipse class = "link" cx = "582.804193122112565106363" cy = "650.3469072253301419550553" rx = "3" ry = "3"/>
<!-- dist = 501.2125027352278721082257 -->
<g> <path class = "link" d = "M950, 309.2  582.804193136699, 650.34690724103  "/></g>
<ellipse class = "link" cx = "950" cy = "309.1999999999999886313162" rx = "3" ry = "3"/>
<ellipse class = "link" cx = "582.8041931366985863860464" cy = "650.3469072410298394970596" rx = "3" ry = "3"/>
<!-- dist = 501.2125027352278721082257 -->
<g> <path class = "link" d = "M950, 309.2  582.804193179582, 650.346907287188  "/></g>
<ellipse class = "link" cx = "950" cy = "309.1999999999999886313162" rx = "3" ry = "3"/>
<ellipse class = "link" cx = "582.8041931795818300088285" cy = "650.3469072871876051067375" rx = "3" ry = "3"/>
<!-- dist = 501.2125027352278721082257 -->
<g> <path class = "link" d = "M950, 309.2  582.804193184895, 650.346907292906  "/></g>
<ellipse class = "link" cx = "950" cy = "309.1999999999999886313162" rx = "3" ry = "3"/>
<ellipse class = "link" cx = "582.8041931848945296223974" cy = "650.3469072929060530441348" rx = "3" ry = "3"/>
<!-- dist = 501.2125027352279857950634 -->
<g> <path class = "link" d = "M621.154558739379, 592.514041010221  574.086912505734, 641.470397154768  "/></g>
<ellipse class = "link" cx = "621.1545587393785581298289" cy = "592.5140410102209216347546" rx = "3" ry = "3"/>
<ellipse class = "link" cx = "574.0869125057339488193975" cy = "641.4703971547680794174084" rx = "3" ry = "3"/>
<!-- dist = 67.91235623159647616375878 -->
<g> <path class = "link" d = "M621.154558775599, 592.514041045044  574.086912518738, 641.47039716727  "/></g>
<ellipse class = "link" cx = "621.1545587755992983147735" cy = "592.5140410450442232104251" rx = "3" ry = "3"/>
<ellipse class = "link" cx = "574.0869125187375630048336" cy = "641.4703971672699935879791" rx = "3" ry = "3"/>
<!-- dist = 67.91235623159650458546821 -->
<g> <path class = "link" d = "M621.154558816902, 592.514041084754  574.086912573149, 641.470397219582  "/></g>
<ellipse class = "link" cx = "621.1545588169024085800629" cy = "592.5140410847540124450461" rx = "3" ry = "3"/>
<ellipse class = "link" cx = "574.08691257314853828575" cy = "641.4703972195819687840412" rx = "3" ry = "3"/>
<!-- dist = 67.91235623159650458546821 -->
<g> <path class = "link" d = "M621.154558856726, 592.514041123041  574.086912608045, 641.470397253132  "/></g>
<ellipse class = "link" cx = "621.1545588567256572787301" cy = "592.5140411230407835319056" rx = "3" ry = "3"/>
<ellipse class = "link" cx = "574.0869126080449404980754" cy = "641.4703972531319777772296" rx = "3" ry = "3"/>
<!-- dist = 67.91235623159651879632293 -->
<g> <path class = "link" d = "M621.154558849026, 592.514041115638  574.086912644701, 641.470397288374  "/></g>
<ellipse class = "link" cx = "621.1545588490259888203582" cy = "592.5140411156381787805003" rx = "3" ry = "3"/>
<ellipse class = "link" cx = "574.0869126447009875846561" cy = "641.4703972883738742893911" rx = "3" ry = "3"/>
<!-- dist = 67.91235623159651879632293 -->
<g> <path class = "link" d = "M621.154558788413, 592.514041057363  574.086912539137, 641.470397186883  "/></g>
<ellipse class = "link" cx = "621.1545587884127144207014" cy = "592.5140410573633289459394" rx = "3" ry = "3"/>
<ellipse class = "link" cx = "574.086912539137301791925" cy = "641.4703971868827920843614" rx = "3" ry = "3"/>
<!-- dist = 67.91235623159651879632293 -->
<g> <path class = "link" d = "M621.154558763287, 592.514041033207  574.086912513481, 641.470397162216  "/></g>
<ellipse class = "link" cx = "621.1545587632865590421716" cy = "592.5140410332065812326618" rx = "3" ry = "3"/>
<ellipse class = "link" cx = "574.0869125134807973154238" cy = "641.4703971622161589039024" rx = "3" ry = "3"/>
<!-- dist = 67.91235623159651879632293 -->
<g> <path class = "link" d = "M621.15455876396, 592.514041033854  574.086912537664, 641.470397185467  "/></g>
<ellipse class = "link" cx = "621.1545587639604946161853" cy = "592.5140410338544825208373" rx = "3" ry = "3"/>
<ellipse class = "link" cx = "574.0869125376643751224037" cy = "641.470397185466708833701" rx = "3" ry = "3"/>
<!-- dist = 67.91235623159651879632293 -->
<g> <path class = "link" d = "M621.154558807248, 592.514041075472  574.08691255553, 641.470397202643  "/></g>
<ellipse class = "link" cx = "621.1545588072478949470678" cy = "592.514041075471936892427" rx = "3" ry = "3"/>
<ellipse class = "link" cx = "574.0869125555295795493294" cy = "641.4703972026427436503582" rx = "3" ry = "3"/>
<!-- dist = 67.91235623159651879632293 -->
<g> <path class = "link" d = "M621.154558803576, 592.514041071942  574.086912571962, 641.470397218441  "/></g>
<ellipse class = "link" cx = "621.1545588035760374623351" cy = "592.5140410719416195206577" rx = "3" ry = "3"/>
<ellipse class = "link" cx = "574.0869125719615340130986" cy = "641.4703972184406666201539" rx = "3" ry = "3"/>
<!-- dist = 67.91235623159653300717764 -->
<g> <path class = "link" d = "M621.154558718696, 592.514040990336  574.086912427087, 641.470397079155  "/></g>
<ellipse class = "link" cx = "621.1545587186961938641616" cy = "592.5140409903364115962177" rx = "3" ry = "3"/>
<ellipse class = "link" cx = "574.0869124270870997861493" cy = "641.4703970791554183961125" rx = "3" ry = "3"/>
<!-- dist = 67.91235623159653300717764 -->
<g> <path class = "link" d = "M621.154558783577, 592.514041052714  574.086912546162, 641.470397193637  "/></g>
<ellipse class = "link" cx = "621.1545587835765900308616" cy = "592.5140410527137646568008" rx = "3" ry = "3"/>
<ellipse class = "link" cx = "574.0869125461624662420945" cy = "641.4703971936369271134026" rx = "3" ry = "3"/>
<!-- dist = 67.91235623159653300717764 -->
<g> <path class = "link" d = "M621.154558773794, 592.514041043309  574.086912543408, 641.470397190989  "/></g>
<ellipse class = "link" cx = "621.1545587737939513317542" cy = "592.5140410433085662589292" rx = "3" ry = "3"/>
<ellipse class = "link" cx = "574.0869125434082889114507" cy = "641.4703971909890469760285" rx = "3" ry = "3"/>
<!-- dist = 67.91235623159654721803236 -->
<g> <path class = "link" d = "M621.154558774298, 592.514041043794  574.086912528858, 641.470397177  "/></g>
<ellipse class = "link" cx = "621.154558774298379830725" cy = "592.5140410437935543086496" rx = "3" ry = "3"/>
<ellipse class = "link" cx = "574.0869125288577379251365" cy = "641.4703971769998815943836" rx = "3" ry = "3"/>
<!-- dist = 67.91235623159654721803236 -->
<g> <path class = "link" d = "M621.154558797477, 592.514041066078  574.086912547142, 641.470397194578  "/></g>
<ellipse class = "link" cx = "621.1545587974771933659213" cy = "592.5140410660781071783276" rx = "3" ry = "3"/>
<ellipse class = "link" cx = "574.0869125471416509753908" cy = "641.4703971945783678165753" rx = "3" ry = "3"/>
<!-- dist = 67.91235623159654721803236 -->
<g> <path class = "link" d = "M621.154558762179, 592.514041032142  574.08691252542, 641.470397173694  "/></g>
<ellipse class = "link" cx = "621.1545587621789081822499" cy = "592.5140410321415629368857" rx = "3" ry = "3"/>
<ellipse class = "link" cx = "574.0869125254196205787593" cy = "641.4703971736943231007899" rx = "3" ry = "3"/>
<!-- dist = 67.91235623159654721803236 -->
<g> <path class = "link" d = "M621.15455879375, 592.514041062495  574.086912587532, 641.47039723341  "/></g>
<ellipse class = "link" cx = "621.1545587937500840780558" cy = "592.5140410624946980533423" rx = "3" ry = "3"/>
<ellipse class = "link" cx = "574.0869125875318559337757" cy = "641.47039723341026729031" rx = "3" ry = "3"/>
<!-- dist = 67.91235623159656142888707 -->
<g> <path class = "link" d = "M621.154558818, 592.514041085809  574.086912561936, 641.470397208802  "/></g>
<ellipse class = "link" cx = "621.1545588180001686851028" cy = "592.5140410858092536727781" rx = "3" ry = "3"/>
<ellipse class = "link" cx = "574.086912561936401289131" cy = "641.4703972088022965181153" rx = "3" ry = "3"/>
<!-- dist = 67.91235623159656142888707 -->
<g> <path class = "link" d = "M621.154558755905, 592.514041026109  574.086912483289, 641.470397133189  "/></g>
<ellipse class = "link" cx = "621.1545587559047589820693" cy = "592.5140410261094530142145" rx = "3" ry = "3"/>
<ellipse class = "link" cx = "574.0869124832889838216943" cy = "641.4703971331890670626308" rx = "3" ry = "3"/>
<!-- dist = 67.91235623159656142888707 -->
<g> <path class = "link" d = "M621.154558801376, 592.514041069827  574.086912535798, 641.470397183672  "/></g>
<ellipse class = "link" cx = "621.1545588013761971524218" cy = "592.5140410698265895916848" rx = "3" ry = "3"/>
<ellipse class = "link" cx = "574.0869125357975235601771" cy = "641.4703971836718210397521" rx = "3" ry = "3"/>
<!-- dist = 67.91235623159656142888707 -->
<g> <path class = "link" d = "M621.154558818814, 592.514041086592  574.086912560912, 641.470397207817  "/></g>
<ellipse class = "link" cx = "621.1545588188138253826764" cy = "592.5140410865916464899783" rx = "3" ry = "3"/>
<ellipse class = "link" cx = "574.0869125609116281339084" cy = "641.4703972078172000692575" rx = "3" ry = "3"/>
<!-- dist = 67.91235623159657563974179 -->
<g> <path class = "link" d = "M621.154558738908, 592.514041009769  574.086912412961, 641.470397065575  "/></g>
<ellipse class = "link" cx = "621.15455873890846305585" cy = "592.5140410097689027679735" rx = "3" ry = "3"/>
<ellipse class = "link" cx = "574.0869124129612828255631" cy = "641.4703970655746161355637" rx = "3" ry = "3"/>
<!-- dist = 67.91235623159657563974179 -->
<g> <path class = "link" d = "M621.154558789064, 592.51404105799  574.086912567229, 641.47039721389  "/></g>
<ellipse class = "link" cx = "621.154558789064253687684" cy = "592.5140410579897434217855" rx = "3" ry = "3"/>
<ellipse class = "link" cx = "574.0869125672285235850723" cy = "641.4703972138903509403463" rx = "3" ry = "3"/>
<!-- dist = 67.91235623159657563974179 -->
<g> <path class = "link" d = "M621.154558803401, 592.514041071773  574.086912561995, 641.470397208859  "/></g>
<ellipse class = "link" cx = "621.1545588034008460454061" cy = "592.5140410717731356271543" rx = "3" ry = "3"/>
<ellipse class = "link" cx = "574.0869125619951773842331" cy = "641.470397208858798876463" rx = "3" ry = "3"/>
<!-- dist = 67.91235623159657563974179 -->
<g> <path class = "link" d = "M621.154558793025, 592.514041061797  574.086912553093, 641.4703972003  "/></g>
<ellipse class = "link" cx = "621.1545587930248757402296" cy = "592.5140410617974566775956" rx = "3" ry = "3"/>
<ellipse class = "link" cx = "574.0869125530928158696042" cy = "641.4703972002998852985911" rx = "3" ry = "3"/>
<!-- dist = 67.91235623159657563974179 -->
<g> <path class = "link" d = "M621.154558778196, 592.51404104754  574.08691251659, 641.470397165205  "/></g>
<ellipse class = "link" cx = "621.1545587781957920014975" cy = "592.5140410475404451062786" rx = "3" ry = "3"/>
<ellipse class = "link" cx = "574.0869125165897912665969" cy = "641.4703971652050995544414" rx = "3" ry = "3"/>
<!-- dist = 67.91235623159657563974179 -->
<g> <path class = "link" d = "M621.154558856053, 592.514041122394  574.086912668702, 641.470397311449  "/></g>
<ellipse class = "link" cx = "621.1545588560533133204444" cy = "592.5140411223943601726205" rx = "3" ry = "3"/>
<ellipse class = "link" cx = "574.0869126687016432697419" cy = "641.4703973114486643680721" rx = "3" ry = "3"/>
<!-- dist = 67.9123562315965898505965 -->
<g> <path class = "link" d = "M621.154558711002, 592.514040982939  574.086912439014, 641.470397090622  "/></g>
<ellipse class = "link" cx = "621.1545587110016413134872" cy = "592.5140409829386953788344" rx = "3" ry = "3"/>
<ellipse class = "link" cx = "574.0869124390142133051995" cy = "641.4703970906224412829033" rx = "3" ry = "3"/>
<!-- dist = 67.9123562315965898505965 -->
<g> <path class = "link" d = "M621.154558834787, 592.514041101949  574.086912586784, 641.470397232692  "/></g>
<ellipse class = "link" cx = "621.1545588347873945167521" cy = "592.5140411019488055899274" rx = "3" ry = "3"/>
<ellipse class = "link" cx = "574.0869125867844786625938" cy = "641.4703972326917664759094" rx = "3" ry = "3"/>
<!-- dist = 67.9123562315965898505965 -->
<g> <path class = "link" d = "M621.154558801419, 592.514041069868  574.086912562976, 641.470397209802  "/></g>
<ellipse class = "link" cx = "621.154558801419398150756" cy = "592.5140410698681989742909" rx = "3" ry = "3"/>
<ellipse class = "link" cx = "574.0869125629758400464198" cy = "641.4703972098017175085261" rx = "3" ry = "3"/>
<!-- dist = 67.9123562315965898505965 -->
<g> <path class = "link" d = "M621.154558806396, 592.514041074653  574.08691255344, 641.470397200633  "/></g>
<ellipse class = "link" cx = "621.1545588063961531588575" cy = "592.5140410746529369134805" rx = "3" ry = "3"/>
<ellipse class = "link" cx = "574.0869125534396744114929" cy = "641.4703972006334424804663" rx = "3" ry = "3"/>
<!-- dist = 67.9123562315965898505965 -->
<g> <path class = "link" d = "M621.15455878245, 592.514041051631  574.086912507381, 641.470397156351  "/></g>
<ellipse class = "link" cx = "621.1545587824500671558781" cy = "592.5140410516306701538269" rx = "3" ry = "3"/>
<ellipse class = "link" cx = "574.0869125073805889769574" cy = "641.4703971563512823195197" rx = "3" ry = "3"/>
<!-- dist = 67.9123562315965898505965 -->
<g> <path class = "link" d = "M621.154558770037, 592.514041039697  574.08691253142, 641.470397179463  "/></g>
<ellipse class = "link" cx = "621.1545587700371697792434" cy = "592.5140410396966217376757" rx = "3" ry = "3"/>
<ellipse class = "link" cx = "574.0869125314196708131931" cy = "641.4703971794629069336224" rx = "3" ry = "3"/>
<!-- dist = 67.9123562315965898505965 -->
<g> <path class = "link" d = "M621.154558768525, 592.514041038243  574.086912528762, 641.470397176908  "/></g>
<ellipse class = "link" cx = "621.1545587685252485243836" cy = "592.5140410382430218305672" rx = "3" ry = "3"/>
<ellipse class = "link" cx = "574.0869125287617862340994" cy = "641.4703971769075678821537" rx = "3" ry = "3"/>
<!-- dist = 67.91235623159660406145122 -->
<g> <path class = "link" d = "M621.154558775969, 592.5140410454  574.086912519047, 641.470397167567  "/></g>
<ellipse class = "link" cx = "621.1545587759691215978819" cy = "592.5140410453997219519806" rx = "3" ry = "3"/>
<ellipse class = "link" cx = "574.086912519046563829761" cy = "641.4703971675671709817834" rx = "3" ry = "3"/>
<!-- dist = 67.91235623159660406145122 -->
<g> <path class = "link" d = "M621.154558826644, 592.514041094119  574.086912609636, 641.470397254661  "/></g>
<ellipse class = "link" cx = "621.1545588266437789570773" cy = "592.5140410941193067628774" rx = "3" ry = "3"/>
<ellipse class = "link" cx = "574.086912609635760418314" cy = "641.4703972546614068050985" rx = "3" ry = "3"/>
<!-- dist = 67.91235623159660406145122 -->
<g> <path class = "link" d = "M621.15455883097, 592.514041098278  574.086912581334, 641.470397227452  "/></g>
<ellipse class = "link" cx = "621.1545588309695631323848" cy = "592.5140410982783123472473" rx = "3" ry = "3"/>
<ellipse class = "link" cx = "574.0869125813343316622195" cy = "641.4703972274519401253201" rx = "3" ry = "3"/>
<!-- dist = 67.91235623159660406145122 -->
<g> <path class = "link" d = "M621.154558805695, 592.514041073979  574.086912585517, 641.470397231473  "/></g>
<ellipse class = "link" cx = "621.1545588056948190569528" cy = "592.5140410739786602789536" rx = "3" ry = "3"/>
<ellipse class = "link" cx = "574.0869125855168704219977" cy = "641.4703972314731572623714" rx = "3" ry = "3"/>
<!-- dist = 67.91235623159661827230593 -->
<g> <path class = "link" d = "M621.154558790184, 592.514041059066  574.086912552799, 641.470397200018  "/></g>
<ellipse class = "link" cx = "621.1545587901840690392419" cy = "592.5140410590662440881715" rx = "3" ry = "3"/>
<ellipse class = "link" cx = "574.086912552799276454607" cy = "641.4703972000177145673661" rx = "3" ry = "3"/>
<!-- dist = 67.91235623159661827230593 -->
<g> <path class = "link" d = "M621.154558833673, 592.514041100878  574.086912606013, 641.470397251179  "/></g>
<ellipse class = "link" cx = "621.1545588336732635070803" cy = "592.514041100877761891752" rx = "3" ry = "3"/>
<ellipse class = "link" cx = "574.0869126060132430211524" cy = "641.4703972511788379051723" rx = "3" ry = "3"/>
<!-- dist = 67.91235623159661827230593 -->
<g> <path class = "link" d = "M621.154558765211, 592.514041035056  574.086912483883, 641.47039713376  "/></g>
<ellipse class = "link" cx = "621.1545587652105950837722" cy = "592.5140410350561523955548" rx = "3" ry = "3"/>
<ellipse class = "link" cx = "574.086912483882883861952" cy = "641.4703971337600023616687" rx = "3" ry = "3"/>
<!-- dist = 67.91235623159661827230593 -->
<g> <path class = "link" d = "M621.154558753533, 592.51404102383  574.086912517295, 641.470397165883  "/></g>
<ellipse class = "link" cx = "621.1545587535333652340341" cy = "592.5140410238295771705452" rx = "3" ry = "3"/>
<ellipse class = "link" cx = "574.0869125172951044078218" cy = "641.4703971658833552282886" rx = "3" ry = "3"/>
<!-- dist = 67.91235623159661827230593 -->
<g> <path class = "link" d = "M621.154558782876, 592.51404105204  574.086912523502, 641.47039717185  "/></g>
<ellipse class = "link" cx = "621.1545587828755969894701" cy = "592.5140410520397153959493" rx = "3" ry = "3"/>
<ellipse class = "link" cx = "574.0869125235017236263957" cy = "641.470397171850436279783" rx = "3" ry = "3"/>
<!-- dist = 67.91235623159661827230593 -->
<g> <path class = "link" d = "M621.154558829936, 592.514041097285  574.086912592275, 641.47039723797  "/></g>
<ellipse class = "link" cx = "621.154558829936263464333" cy = "592.5140410972849167592358" rx = "3" ry = "3"/>
<ellipse class = "link" cx = "574.086912592274643429846" cy = "641.470397237970246351324" rx = "3" ry = "3"/>
<!-- dist = 67.91235623159661827230593 -->
<g> <path class = "link" d = "M621.154558807936, 592.514041076133  574.08691256527, 641.470397212008  "/></g>
<ellipse class = "link" cx = "621.1545588079359276889591" cy = "592.5140410761332532274537" rx = "3" ry = "3"/>
<ellipse class = "link" cx = "574.0869125652704951789929" cy = "641.470397212007810594514" rx = "3" ry = "3"/>
<!-- dist = 67.91235623159661827230593 -->
<g> <path class = "link" d = "M621.154558855157, 592.514041121533  574.086912661683, 641.470397304701  "/></g>
<ellipse class = "link" cx = "621.1545588551570062918472" cy = "592.5140411215326139426907" rx = "3" ry = "3"/>
<ellipse class = "link" cx = "574.0869126616829589693225" cy = "641.4703973047007821151055" rx = "3" ry = "3"/>
<!-- dist = 67.91235623159661827230593 -->
<g> <path class = "link" d = "M621.154558750526, 592.514041020938  574.086912484575, 641.470397134425  "/></g>
<ellipse class = "link" cx = "621.1545587505261210026219" cy = "592.5140410209381798267714" rx = "3" ry = "3"/>
<ellipse class = "link" cx = "574.0869124845750093300012" cy = "641.4703971344254114228534" rx = "3" ry = "3"/>
<!-- dist = 67.91235623159661827230593 -->
<g> <path class = "link" d = "M621.154558725779, 592.514040997146  574.086912433849, 641.470397085656  "/></g>
<ellipse class = "link" cx = "621.1545587257786564805428" cy = "592.5140409971455710547161" rx = "3" ry = "3"/>
<ellipse class = "link" cx = "574.0869124338486244596425" cy = "641.4703970856561454638722" rx = "3" ry = "3"/>
<!-- dist = 67.91235623159663248316065 -->
<g> <path class = "link" d = "M621.154558788479, 592.514041057427  574.086912527609, 641.470397175799  "/></g>
<ellipse class = "link" cx = "621.154558788479448594444" cy = "592.5140410574273346355767" rx = "3" ry = "3"/>
<ellipse class = "link" cx = "574.0869125276088880127645" cy = "641.4703971757991212143679" rx = "3" ry = "3"/>
<!-- dist = 67.91235623159663248316065 -->
<g> <path class = "link" d = "M621.15455872202, 592.514040993532  574.08691244588, 641.470397097223  "/></g>
<ellipse class = "link" cx = "621.1545587220201696254662" cy = "592.5140409935321486045723" rx = "3" ry = "3"/>
<ellipse class = "link" cx = "574.0869124458795340615325" cy = "641.4703970972229853941826" rx = "3" ry = "3"/>
<!-- dist = 67.91235623159663248316065 -->
<g> <path class = "link" d = "M621.154558828291, 592.514041095703  574.086912587329, 641.470397233216  "/></g>
<ellipse class = "link" cx = "621.1545588282912149225012" cy = "592.5140410957031917860149" rx = "3" ry = "3"/>
<ellipse class = "link" cx = "574.0869125873294933626312" cy = "641.4703972332157491109683" rx = "3" ry = "3"/>
<!-- dist = 67.91235623159663248316065 -->
<g> <path class = "link" d = "M621.15455874216, 592.514041012895  574.086912487617, 641.47039713735  "/></g>
<ellipse class = "link" cx = "621.1545587421603613620391" cy = "592.5140410128952908053179" rx = "3" ry = "3"/>
<ellipse class = "link" cx = "574.0869124876169280469185" cy = "641.4703971373501190100797" rx = "3" ry = "3"/>
<!-- dist = 67.91235623159663248316065 -->
<g> <path class = "link" d = "M621.154558808169, 592.514041076357  574.086912574392, 641.470397220777  "/></g>
<ellipse class = "link" cx = "621.1545588081686446457752" cy = "592.5140410763569889240898" rx = "3" ry = "3"/>
<ellipse class = "link" cx = "574.0869125743917038562358" cy = "641.4703972207771585090086" rx = "3" ry = "3"/>
<!-- dist = 67.91235623159663248316065 -->
<g> <path class = "link" d = "M621.154558818641, 592.514041086425  574.086912545497, 641.470397192997  "/></g>
<ellipse class = "link" cx = "621.1545588186407940156641" cy = "592.5140410864250952727161" rx = "3" ry = "3"/>
<ellipse class = "link" cx = "574.0869125454971708677476" cy = "641.4703971929973249643808" rx = "3" ry = "3"/>
<!-- dist = 67.91235623159663248316065 -->
<g> <path class = "link" d = "M621.154558829312, 592.514041096684  574.086912590675, 641.470397236433  "/></g>
<ellipse class = "link" cx = "621.1545588293115542910527" cy = "592.5140410966843091955525" rx = "3" ry = "3"/>
<ellipse class = "link" cx = "574.0869125906751833099406" cy = "641.4703972364325181843014" rx = "3" ry = "3"/>
<!-- dist = 67.91235623159663248316065 -->
<g> <path class = "link" d = "M621.154558749235, 592.514041019697  574.086912458587, 641.470397109441  "/></g>
<ellipse class = "link" cx = "621.1545587492347522129421" cy = "592.5140410196967195588513" rx = "3" ry = "3"/>
<ellipse class = "link" cx = "574.0869124585874487820547" cy = "641.4703971094405687836115" rx = "3" ry = "3"/>
<!-- dist = 67.91235623159664669401536 -->
<g> <path class = "link" d = "M621.1545588351, 592.514041102249  574.086912598762, 641.470397244207  "/></g>
<ellipse class = "link" cx = "621.1545588350995785731357" cy = "592.5140411022489388415124" rx = "3" ry = "3"/>
<ellipse class = "link" cx = "574.0869125987619554507546" cy = "641.4703972442072199555696" rx = "3" ry = "3"/>
<!-- dist = 67.91235623159664669401536 -->
<g> <path class = "link" d = "M621.154558779989, 592.514041049264  574.086912528731, 641.470397176878  "/></g>
<ellipse class = "link" cx = "621.1545587799886334323674" cy = "592.5140410492641649398138" rx = "3" ry = "3"/>
<ellipse class = "link" cx = "574.08691252873131816159" cy = "641.4703971768783503648592" rx = "3" ry = "3"/>
<!-- dist = 67.91235623159664669401536 -->
<g> <path class = "link" d = "M621.154558788663, 592.514041057603  574.086912564985, 641.470397211733  "/></g>
<ellipse class = "link" cx = "621.1545587886625980900135" cy = "592.5140410576034355472075" rx = "3" ry = "3"/>
<ellipse class = "link" cx = "574.0869125649849138426362" cy = "641.4703972117332568814163" rx = "3" ry = "3"/>
<!-- dist = 67.91235623159664669401536 -->
<g> <path class = "link" d = "M621.154558740361, 592.514041011166  574.086912508597, 641.470397157521  "/></g>
<ellipse class = "link" cx = "621.1545587403612671550945" cy = "592.5140410111655455693835" rx = "3" ry = "3"/>
<ellipse class = "link" cx = "574.0869125085974928879295" cy = "641.4703971575212335665128" rx = "3" ry = "3"/>
<!-- dist = 67.91235623159664669401536 -->
<g> <path class = "link" d = "M621.154558782162, 592.514041051354  574.086912555596, 641.470397202707  "/></g>
<ellipse class = "link" cx = "621.1545587821619847090915" cy = "592.5140410513536153302994" rx = "3" ry = "3"/>
<ellipse class = "link" cx = "574.0869125555963137230719" cy = "641.4703972027068630268332" rx = "3" ry = "3"/>
<!-- dist = 67.91235623159664669401536 -->
<g> <path class = "link" d = "M621.154558772536, 592.514041042099  574.086912550225, 641.470397197543  "/></g>
<ellipse class = "link" cx = "621.1545587725355517250136" cy = "592.514041042098597245058" rx = "3" ry = "3"/>
<ellipse class = "link" cx = "574.0869125502252927617519" cy = "641.4703971975430931706796" rx = "3" ry = "3"/>
<!-- dist = 67.91235623159666090487008 -->
<g> <path class = "link" d = "M621.154558827915, 592.514041095341  574.086912569862, 641.470397216422  "/></g>
<ellipse class = "link" cx = "621.1545588279145704291295" cy = "592.5140410953409855210339" rx = "3" ry = "3"/>
<ellipse class = "link" cx = "574.0869125698621928677312" cy = "641.4703972164222705032444" rx = "3" ry = "3"/>
<!-- dist = 67.91235623159666090487008 -->
<g> <path class = "link" d = "M621.154558766318, 592.514041036121  574.086912497725, 641.470397147069  "/></g>
<ellipse class = "link" cx = "621.1545587663182459436939" cy = "592.5140410361211706913309" rx = "3" ry = "3"/>
<ellipse class = "link" cx = "574.0869124977252795360982" cy = "641.4703971470685246458743" rx = "3" ry = "3"/>
<!-- dist = 67.91235623159666090487008 -->
<g> <path class = "link" d = "M621.154558748686, 592.514041019169  574.086912494595, 641.470397144059  "/></g>
<ellipse class = "link" cx = "621.154558748686326907773" cy = "592.5140410191694400054985" rx = "3" ry = "3"/>
<ellipse class = "link" cx = "574.0869124945949124594335" cy = "641.4703971440588929908699" rx = "3" ry = "3"/>
<!-- dist = 67.91235623159666090487008 -->
<g> <path class = "link" d = "M621.154558873234, 592.514041138912  574.0869126567, 641.47039729991  "/></g>
<ellipse class = "link" cx = "621.1545588732338956106105" cy = "592.5140411389120345120318" rx = "3" ry = "3"/>
<ellipse class = "link" cx = "574.0869126567000648719841" cy = "641.4703972999101324603544" rx = "3" ry = "3"/>
<!-- dist = 67.91235623159667511572479 -->
<g> <path class = "link" d = "M621.154558740721, 592.514041011512  574.086912490246, 641.470397139878  "/></g>
<ellipse class = "link" cx = "621.1545587407211996833212" cy = "592.5140410115116083034081" rx = "3" ry = "3"/>
<ellipse class = "link" cx = "574.0869124902458224823931" cy = "641.4703971398776047863066" rx = "3" ry = "3"/>
<!-- dist = 67.91235623159667511572479 -->
<g> <path class = "link" d = "M621.154558714744, 592.514040986537  574.086912449811, 641.470397101003  "/></g>
<ellipse class = "link" cx = "621.1545587147438709507696" cy = "592.5140409865365427322104" rx = "3" ry = "3"/>
<ellipse class = "link" cx = "574.0869124498112796572968" cy = "641.4703971010030727484263" rx = "3" ry = "3"/>
<!-- dist = 67.91235623159667511572479 -->
<g> <path class = "link" d = "M621.154558789503, 592.514041058412  574.086912538937, 641.47039718669  "/></g>
<ellipse class = "link" cx = "621.1545587895034259418026" cy = "592.5140410584117489634082" rx = "3" ry = "3"/>
<ellipse class = "link" cx = "574.0869125389370992706972" cy = "641.4703971866903202680987" rx = "3" ry = "3"/>
<!-- dist = 67.91235623159668932657951 -->
<g> <path class = "link" d = "M621.154558744825, 592.514041015458  574.086912486238, 641.470397136024  "/></g>
<ellipse class = "link" cx = "621.1545587448254082119092" cy = "592.5140410154575647538877" rx = "3" ry = "3"/>
<ellipse class = "link" cx = "574.0869124862377930185176" cy = "641.4703971360243031085702" rx = "3" ry = "3"/>
<!-- dist = 67.91235623159668932657951 -->
<g> <path class = "link" d = "M621.1545588436, 592.514041110421  574.086912622717, 641.470397267238  "/></g>
<ellipse class = "link" cx = "621.1545588435998297427432" cy = "592.5140411104212034842931" rx = "3" ry = "3"/>
<ellipse class = "link" cx = "574.0869126227171364007518" cy = "641.4703972672382406017277" rx = "3" ry = "3"/>
<!-- dist = 67.91235623159668932657951 -->
<g> <path class = "link" d = "M621.154558767247, 592.514041037014  574.086912491067, 641.470397140667  "/></g>
<ellipse class = "link" cx = "621.1545587672466126605286" cy = "592.5140410370136123674456" rx = "3" ry = "3"/>
<ellipse class = "link" cx = "574.0869124910667551375809" cy = "641.4703971406668188137701" rx = "3" ry = "3"/>
<!-- dist = 67.91235623159668932657951 -->
<g> <path class = "link" d = "M621.154558827423, 592.514041094868  574.0869126161, 641.470397260876  "/></g>
<ellipse class = "link" cx = "621.1545588274228748559835" cy = "592.5140410948683893366251" rx = "3" ry = "3"/>
<ellipse class = "link" cx = "574.0869126160996529506519" cy = "641.4703972608760977891507" rx = "3" ry = "3"/>
<!-- dist = 67.91235623159668932657951 -->
<g> <path class = "link" d = "M621.154558814282, 592.514041082235  574.086912562741, 641.470397209576  "/></g>
<ellipse class = "link" cx = "621.1545588142821543442551" cy = "592.5140410822345984342974" rx = "3" ry = "3"/>
<ellipse class = "link" cx = "574.0869125627408493528492" cy = "641.4703972095758217619732" rx = "3" ry = "3"/>
<!-- dist = 67.91235623159670353743422 -->
<g> <path class = "link" d = "M621.154558819933, 592.514041087667  574.086912610525, 641.470397255517  "/></g>
<ellipse class = "link" cx = "621.1545588199328449263703" cy = "592.5140410876672376616625" rx = "3" ry = "3"/>
<ellipse class = "link" cx = "574.0869126105253599234857" cy = "641.470397255516786572116" rx = "3" ry = "3"/>
<!-- dist = 67.91235623159670353743422 -->
<g> <path class = "link" d = "M621.154558779716, 592.514041049002  574.086912558321, 641.470397205326  "/></g>
<ellipse class = "link" cx = "621.1545587797156713349978" cy = "592.5140410490015483446768" rx = "3" ry = "3"/>
<ellipse class = "link" cx = "574.0869125583210461627459" cy = "641.4703972053264351416146" rx = "3" ry = "3"/>
<!-- dist = 67.91235623159671774828894 -->
<g> <path class = "link" d = "M621.154558742401, 592.514041013127  574.086912479583, 641.470397129626  "/></g>
<ellipse class = "link" cx = "621.1545587424014911448467" cy = "592.5140410131269845805946" rx = "3" ry = "3"/>
<ellipse class = "link" cx = "574.0869124795833613461582" cy = "641.4703971296264626289485" rx = "3" ry = "3"/>
<!-- dist = 67.91235623159671774828894 -->
<g> <path class = "link" d = "M621.154558769159, 592.514041038852  574.086912534592, 641.470397182513  "/></g>
<ellipse class = "link" cx = "621.1545587691592800183571" cy = "592.5140410388524969675927" rx = "3" ry = "3"/>
<ellipse class = "link" cx = "574.0869125345923293934902" cy = "641.4703971825132384765311" rx = "3" ry = "3"/>
<!-- dist = 67.91235623159671774828894 -->
<g> <path class = "link" d = "M621.154558790359, 592.514041059235  574.086912556762, 641.470397203828  "/></g>
<ellipse class = "link" cx = "621.1545587903593741430086" cy = "592.514041059234727981675" rx = "3" ry = "3"/>
<ellipse class = "link" cx = "574.0869125567621722439071" cy = "641.4703972038278152467683" rx = "3" ry = "3"/>
<!-- dist = 67.91235623159673195914365 -->
<g> <path class = "link" d = "M621.154558819008, 592.514041086778  574.086912619756, 641.470397264391  "/></g>
<ellipse class = "link" cx = "621.1545588190078888146672" cy = "592.514041086777979217004" rx = "3" ry = "3"/>
<ellipse class = "link" cx = "574.0869126197559353386168" cy = "641.470397264391294811503" rx = "3" ry = "3"/>
<!-- dist = 67.91235623159673195914365 -->
<g> <path class = "link" d = "M621.154558795186, 592.514041063875  574.086912565131, 641.470397211873  "/></g>
<ellipse class = "link" cx = "621.1545587951856077779667" cy = "592.514041063874742576445" rx = "3" ry = "3"/>
<ellipse class = "link" cx = "574.0869125651306603685953" cy = "641.4703972118734327523271" rx = "3" ry = "3"/>
<!-- dist = 67.91235623159673195914365 -->
<g> <path class = "link" d = "M621.154558777593, 592.514041046961  574.086912501456, 641.470397150655  "/></g>
<ellipse class = "link" cx = "621.1545587775931380747352" cy = "592.5140410469609832944116" rx = "3" ry = "3"/>
<ellipse class = "link" cx = "574.0869125014557994290954" cy = "641.4703971506551170023158" rx = "3" ry = "3"/>
<!-- dist = 67.91235623159673195914365 -->
<g> <path class = "link" d = "M621.154558812589, 592.514041080607  574.086912558801, 641.470397205788  "/></g>
<ellipse class = "link" cx = "621.1545588125892436437425" cy = "592.514041080606943978637" rx = "3" ry = "3"/>
<ellipse class = "link" cx = "574.0869125588006909310934" cy = "641.4703972057876626422512" rx = "3" ry = "3"/>
<!-- dist = 67.91235623159673195914365 -->
<g> <path class = "link" d = "M621.154558798495, 592.514041067056  574.086912538194, 641.470397185976  "/></g>
<ellipse class = "link" cx = "621.1545587984948042503675" cy = "592.5140410670562687300844" rx = "3" ry = "3"/>
<ellipse class = "link" cx = "574.0869125381938147256733" cy = "641.4703971859757984930184" rx = "3" ry = "3"/>
<!-- dist = 67.91235623159673195914365 -->
<g> <path class = "link" d = "M621.154558764799, 592.51404103466  574.08691253907, 641.470397186818  "/></g>
<ellipse class = "link" cx = "621.1545587647987076707068" cy = "592.5140410346600674529327" rx = "3" ry = "3"/>
<ellipse class = "link" cx = "574.0869125390696581234806" cy = "641.4703971868177632131847" rx = "3" ry = "3"/>
<!-- dist = 67.91235623159673195914365 -->
<g> <path class = "link" d = "M621.154558758605, 592.514041028705  574.08691252029, 641.470397168763  "/></g>
<ellipse class = "link" cx = "621.1545587586048213779577" cy = "592.5140410287052645799122" rx = "3" ry = "3"/>
<ellipse class = "link" cx = "574.0869125202904115212732" cy = "641.4703971687631565146148" rx = "3" ry = "3"/>
<!-- dist = 67.91235623159674616999837 -->
<g> <path class = "link" d = "M621.154558808328, 592.51404107651  574.086912549212, 641.470397196569  "/></g>
<ellipse class = "link" cx = "621.15455880832757884491" cy = "592.5140410765096703471499" rx = "3" ry = "3"/>
<ellipse class = "link" cx = "574.086912549211660916626" cy = "641.4703971965685695977299" rx = "3" ry = "3"/>
<!-- dist = 67.91235623159674616999837 -->
<g> <path class = "link" d = "M621.154558793296, 592.514041062058  574.086912540363, 641.470397188061  "/></g>
<ellipse class = "link" cx = "621.1545587932964735955466" cy = "592.5140410620584816570044" rx = "3" ry = "3"/>
<ellipse class = "link" cx = "574.0869125403630732762394" cy = "641.4703971880613835310214" rx = "3" ry = "3"/>
<!-- dist = 67.91235623159674616999837 -->
<g> <path class = "link" d = "M621.154558716515, 592.514040988239  574.086912446084, 641.47039709742  "/></g>
<ellipse class = "link" cx = "621.1545587165152255693101" cy = "592.5140409882394578744425" rx = "3" ry = "3"/>
<ellipse class = "link" cx = "574.0869124460839429957559" cy = "641.4703970974195499366033" rx = "3" ry = "3"/>
<!-- dist = 67.91235623159676038085308 -->
<g> <path class = "link" d = "M621.154558748601, 592.514041019087  574.086912462351, 641.470397113059  "/></g>
<ellipse class = "link" cx = "621.1545587486011754663195" cy = "592.5140410190874717955012" rx = "3" ry = "3"/>
<ellipse class = "link" cx = "574.0869124623512789185042" cy = "641.4703971130592208282906" rx = "3" ry = "3"/>
<!-- dist = 67.91235623159676038085308 -->
<g> <path class = "link" d = "M621.154558753165, 592.514041023475  574.086912503727, 641.470397152838  "/></g>
<ellipse class = "link" cx = "621.1545587531645651324652" cy = "592.5140410234747605500161" rx = "3" ry = "3"/>
<ellipse class = "link" cx = "574.0869125037266940125846" cy = "641.4703971528383590339217" rx = "3" ry = "3"/>
<!-- dist = 67.91235623159676038085308 -->
<g> <path class = "link" d = "M621.154558829539, 592.514041096902  574.08691260133, 641.470397246676  "/></g>
<ellipse class = "link" cx = "621.1545588295387005928205" cy = "592.5140410969024742371403" rx = "3" ry = "3"/>
<ellipse class = "link" cx = "574.0869126013298000543728" cy = "641.4703972466760433235322" rx = "3" ry = "3"/>
<!-- dist = 67.91235623159676038085308 -->
</svg>
